<svg width="25" height="24" viewBox="0 0 25 24" fill="none" xmlns="http://www.w3.org/2000/svg">
<path d="M12.7069 13.53C12.6869 13.53 12.6569 13.53 12.6369 13.53C12.6069 13.53 12.5669 13.53 12.5369 13.53C10.2669 13.46 8.56689 11.69 8.56689 9.50998C8.56689 7.28998 10.3769 5.47998 12.5969 5.47998C14.8169 5.47998 16.6269 7.28998 16.6269 9.50998C16.6169 11.7 14.9069 13.46 12.7369 13.53C12.7169 13.53 12.7169 13.53 12.7069 13.53ZM12.5869 6.96998C11.1869 6.96998 10.0569 8.10998 10.0569 9.49998C10.0569 10.87 11.1269 11.98 12.4869 12.03C12.5169 12.02 12.6169 12.02 12.7169 12.03C14.0569 11.96 15.1069 10.86 15.1169 9.49998C15.1169 8.10998 13.9869 6.96998 12.5869 6.96998Z" fill="#6381CF"/>
<path d="M12.5869 22.75C9.89693 22.75 7.32693 21.75 5.33693 19.93C5.15693 19.77 5.07693 19.53 5.09693 19.3C5.22693 18.11 5.96693 17 7.19693 16.18C10.1769 14.2 15.0069 14.2 17.9769 16.18C19.2069 17.01 19.9469 18.11 20.0769 19.3C20.1069 19.54 20.0169 19.77 19.8369 19.93C17.8469 21.75 15.2769 22.75 12.5869 22.75ZM6.66693 19.1C8.32693 20.49 10.4169 21.25 12.5869 21.25C14.7569 21.25 16.8469 20.49 18.5069 19.1C18.3269 18.49 17.8469 17.9 17.1369 17.42C14.6769 15.78 10.5069 15.78 8.02693 17.42C7.31693 17.9 6.84693 18.49 6.66693 19.1Z" fill="#6381CF"/>
<path d="M12.5869 22.75C6.65691 22.75 1.83691 17.93 1.83691 12C1.83691 6.07 6.65691 1.25 12.5869 1.25C18.5169 1.25 23.3369 6.07 23.3369 12C23.3369 17.93 18.5169 22.75 12.5869 22.75ZM12.5869 2.75C7.48691 2.75 3.33691 6.9 3.33691 12C3.33691 17.1 7.48691 21.25 12.5869 21.25C17.6869 21.25 21.8369 17.1 21.8369 12C21.8369 6.9 17.6869 2.75 12.5869 2.75Z" fill="#6381CF"/>
</svg>
