<svg width="25" height="24" viewBox="0 0 25 24" fill="none" xmlns="http://www.w3.org/2000/svg">
<path opacity="0.4" d="M12.5869 22.01C18.1098 22.01 22.5869 17.5329 22.5869 12.01C22.5869 6.48716 18.1098 2.01001 12.5869 2.01001C7.06407 2.01001 2.58691 6.48716 2.58691 12.01C2.58691 17.5329 7.06407 22.01 12.5869 22.01Z" fill="#6381CF"/>
<path d="M12.5869 6.94C10.5169 6.94 8.83691 8.62 8.83691 10.69C8.83691 12.72 10.4269 14.37 12.5369 14.43C12.5669 14.43 12.6069 14.43 12.6269 14.43C12.6469 14.43 12.6769 14.43 12.6969 14.43C12.7069 14.43 12.7169 14.43 12.7169 14.43C14.7369 14.36 16.3269 12.72 16.3369 10.69C16.3369 8.62 14.6569 6.94 12.5869 6.94Z" fill="#6381CF"/>
<path d="M19.3669 19.36C17.5869 21 15.2069 22.01 12.5869 22.01C9.96689 22.01 7.58688 21 5.80688 19.36C6.04688 18.45 6.69688 17.62 7.64688 16.98C10.3769 15.16 14.8169 15.16 17.5269 16.98C18.4869 17.62 19.1269 18.45 19.3669 19.36Z" fill="#6381CF"/>
</svg>
