<svg width="25" height="24" viewBox="0 0 25 24" fill="none" xmlns="http://www.w3.org/2000/svg">
<path d="M16.5869 12.75H8.58691C8.17691 12.75 7.83691 12.41 7.83691 12C7.83691 11.59 8.17691 11.25 8.58691 11.25H16.5869C16.9969 11.25 17.3369 11.59 17.3369 12C17.3369 12.41 16.9969 12.75 16.5869 12.75Z" fill="#6381CF"/>
<path d="M12.5869 16.75C12.1769 16.75 11.8369 16.41 11.8369 16V8C11.8369 7.59 12.1769 7.25 12.5869 7.25C12.9969 7.25 13.3369 7.59 13.3369 8V16C13.3369 16.41 12.9969 16.75 12.5869 16.75Z" fill="#6381CF"/>
<path d="M15.5869 22.75H9.58691C4.15691 22.75 1.83691 20.43 1.83691 15V9C1.83691 3.57 4.15691 1.25 9.58691 1.25H15.5869C21.0169 1.25 23.3369 3.57 23.3369 9V15C23.3369 20.43 21.0169 22.75 15.5869 22.75ZM9.58691 2.75C4.97691 2.75 3.33691 4.39 3.33691 9V15C3.33691 19.61 4.97691 21.25 9.58691 21.25H15.5869C20.1969 21.25 21.8369 19.61 21.8369 15V9C21.8369 4.39 20.1969 2.75 15.5869 2.75H9.58691Z" fill="#6381CF"/>
</svg>
