<svg width="25" height="24" viewBox="0 0 25 24" fill="none" xmlns="http://www.w3.org/2000/svg">
<path d="M21.677 6.98002C20.827 6.04002 19.407 5.57002 17.347 5.57002H17.107V5.53002C17.107 3.85002 17.107 1.77002 13.347 1.77002H11.827C8.06695 1.77002 8.06695 3.86002 8.06695 5.53002V5.58002H7.82695C5.75695 5.58002 4.34695 6.05002 3.49695 6.99002C2.50695 8.09002 2.53695 9.57002 2.63695 10.58L2.64695 10.65L2.72441 11.4633C2.73867 11.6131 2.81933 11.7484 2.94523 11.8307C3.18503 11.9877 3.58638 12.2464 3.82695 12.38C3.96695 12.47 4.11695 12.55 4.26695 12.63C5.97695 13.57 7.85695 14.2 9.76695 14.51C9.85695 15.45 10.267 16.55 12.457 16.55C14.647 16.55 15.077 15.46 15.147 14.49C17.187 14.16 19.157 13.45 20.937 12.41C20.997 12.38 21.037 12.35 21.087 12.32C21.4837 12.0958 21.8953 11.8195 22.2704 11.5489C22.3834 11.4673 22.4557 11.3413 22.4711 11.2028L22.487 11.06L22.537 10.59C22.547 10.53 22.547 10.48 22.557 10.41C22.637 9.40002 22.617 8.02002 21.677 6.98002ZM13.677 13.83C13.677 14.89 13.677 15.05 12.447 15.05C11.217 15.05 11.217 14.86 11.217 13.84V12.58H13.677V13.83ZM9.49695 5.57002V5.53002C9.49695 3.83002 9.49695 3.20002 11.827 3.20002H13.347C15.677 3.20002 15.677 3.84002 15.677 5.53002V5.58002H9.49695V5.57002Z" fill="#6381CF"/>
<path d="M21.4604 13.7342C21.814 13.5659 22.2212 13.8462 22.1858 14.2362L21.8269 18.19C21.6169 20.19 20.7969 22.23 16.3969 22.23H8.77688C4.37688 22.23 3.55688 20.19 3.34688 18.2L3.00617 14.4522C2.97113 14.0667 3.36908 13.7868 3.72172 13.9463C4.86114 14.4618 6.96428 15.3764 8.26345 15.7167C8.42776 15.7597 8.56065 15.8773 8.63259 16.0312C9.23956 17.3293 10.556 18.02 12.4569 18.02C14.339 18.02 15.672 17.3027 16.281 16.0014C16.3531 15.8474 16.4861 15.7299 16.6505 15.6866C18.03 15.3236 20.2687 14.3013 21.4604 13.7342Z" fill="#6381CF"/>
</svg>
