<svg width="25" height="24" viewBox="0 0 25 24" fill="none" xmlns="http://www.w3.org/2000/svg">
<path opacity="0.4" d="M22.5869 7.81V13.9L20.9569 12.5C20.1769 11.83 18.9169 11.83 18.1369 12.5L13.9769 16.07C13.1969 16.74 11.9369 16.74 11.1569 16.07L10.8169 15.79C10.1069 15.17 8.97691 15.11 8.17691 15.65L3.25691 18.95L3.14691 19.03C2.77691 18.23 2.58691 17.28 2.58691 16.19V7.81C2.58691 4.17 4.75691 2 8.39691 2H16.7769C20.4169 2 22.5869 4.17 22.5869 7.81Z" fill="#6381CF"/>
<path d="M9.58691 10.38C10.9013 10.38 11.9669 9.31443 11.9669 8C11.9669 6.68556 10.9013 5.62 9.58691 5.62C8.27247 5.62 7.20691 6.68556 7.20691 8C7.20691 9.31443 8.27247 10.38 9.58691 10.38Z" fill="#6381CF"/>
<path d="M22.587 13.9V16.19C22.587 19.83 20.417 22 16.777 22H8.39697C5.84697 22 4.00697 20.93 3.14697 19.03L3.25697 18.95L8.17697 15.65C8.97697 15.11 10.107 15.17 10.817 15.79L11.157 16.07C11.937 16.74 13.197 16.74 13.977 16.07L18.137 12.5C18.917 11.83 20.177 11.83 20.957 12.5L22.587 13.9Z" fill="#6381CF"/>
</svg>
