<svg width="25" height="24" viewBox="0 0 25 24" fill="none" xmlns="http://www.w3.org/2000/svg">
<path d="M21.4169 8.00999L14.8669 2.76999C13.5869 1.74999 11.5869 1.73999 10.3169 2.75999L3.76691 8.00999C2.82691 8.75999 2.25691 10.26 2.45691 11.44L3.71691 18.98C4.00691 20.67 5.57691 22 7.28691 22H17.8869C19.5769 22 21.1769 20.64 21.4669 18.97L22.7269 11.43C22.9069 10.26 22.3369 8.75999 21.4169 8.00999ZM13.3369 18C13.3369 18.41 12.9969 18.75 12.5869 18.75C12.1769 18.75 11.8369 18.41 11.8369 18V15C11.8369 14.59 12.1769 14.25 12.5869 14.25C12.9969 14.25 13.3369 14.59 13.3369 15V18Z" fill="#6381CF"/>
</svg>
