<svg width="254" height="84" viewBox="0 0 254 84" fill="none" xmlns="http://www.w3.org/2000/svg">
<path d="M19.0674 7.98965L18.8681 7.75375C17.0386 5.58928 14.3485 4.34071 11.5145 4.34072V4.34072C9.94442 4.34073 8.39815 4.72471 7.01045 5.4592L6.33965 5.81424C5.22084 6.40641 4.25527 7.25093 3.51939 8.28091L3.24069 8.67099C2.43378 9.80039 2 11.1537 2 12.5418V12.5418C2 14.6801 3.02697 16.6883 4.76062 17.9401L5.65527 18.5861C6.38024 19.1096 7.18063 19.5197 8.02898 19.8024L13.9228 21.7666C14.9373 22.1047 15.887 22.6128 16.7312 23.2692L17.2252 23.6534C19.1139 25.122 20.2559 27.3511 20.3445 29.742V29.742C20.4239 31.887 19.6479 33.9758 18.1871 35.5486L17.9629 35.79C17.3503 36.4495 16.6411 37.0121 15.8595 37.4586L15.6894 37.5558C14.1531 38.4335 12.4143 38.8952 10.6449 38.8952H10.3101C8.32227 38.8952 6.36877 38.3768 4.6425 37.3911L2.17803 35.9839M28.9113 4.34073H42.8947M56.878 4.34073H42.8947M42.8947 4.34073V39.6865M66.9038 3.81318V27.1756C66.9038 29.8118 67.7925 32.3711 69.4262 34.44L69.5708 34.6231C70.4229 35.7022 71.478 36.6042 72.6765 37.2782V37.2782C74.2541 38.1654 76.0335 38.6314 77.8434 38.6314H80.1154C82.1845 38.6314 84.2252 38.1498 86.0759 37.2246L86.602 36.9617C87.5351 36.4952 88.3869 35.8814 89.1246 35.1439V35.1439C90.9454 33.3235 91.9683 30.8543 91.9683 28.2796V4.07693M102.258 3.81316L115.395 4.07821C117.256 4.11576 119.097 4.46829 120.841 5.12085V5.12085C122.626 5.78931 124.283 6.76257 125.736 7.99732L126.148 8.34739C127.184 9.22814 128.098 10.2436 128.865 11.3667V11.3667C130.596 13.9011 131.522 16.899 131.522 19.9683V20.8371C131.522 24.9103 130.146 28.864 127.616 32.0562L126.795 33.0921L126.009 33.9476C124.926 35.1263 123.654 36.1155 122.245 36.8741V36.8741C120.086 38.0361 117.666 38.6254 115.215 38.5857L101.73 38.3676M142.889 2.49426V39.6865M61.8909 80.044V50.7636C61.8909 49.3052 63.5967 48.5133 64.7107 49.4545L79.4198 61.8819C80.1003 62.4567 81.1076 62.4145 81.7375 61.7847L94.5834 48.9418C95.6631 47.8624 97.5089 48.6271 97.5089 50.1538V79.7802M108.062 80.3078L121.856 51.3003C122.469 50.0109 124.298 49.9927 124.936 51.2697L139.723 80.8353M173.494 46.2809H192.57C194.074 46.2809 195.551 46.6731 196.857 47.4189L197.035 47.5208C198.038 48.0937 198.9 48.8839 199.557 49.8334V49.8334C200.453 51.127 200.933 52.6632 200.933 54.2367V55.2943C200.933 57.4708 200.117 59.5682 198.646 61.1725V61.1725C198.237 61.6186 197.782 62.0209 197.29 62.3727L197.121 62.4931C195.31 63.7862 193.141 64.4813 190.916 64.4813H190.116M174.549 64.4813H190.116M190.116 64.4813L200.141 81.6266M222.04 45.2258L251.928 82M252 45.2917L221.776 81.8904M211.75 43.6431V80.8353M138.667 46.2809H152.651M166.634 46.2809H152.651M152.651 46.2809V81.6266" stroke="#044799" stroke-width="3.42754" stroke-linecap="round"/>
<path d="M192.21 20.9751C192.21 31.4548 183.712 39.9503 173.23 39.9503C162.748 39.9503 154.25 31.4548 154.25 20.9751C154.25 10.4955 162.748 2 173.23 2C183.712 2 192.21 10.4955 192.21 20.9751ZM157.309 20.9751C157.309 29.7659 164.437 36.8923 173.23 36.8923C182.023 36.8923 189.151 29.7659 189.151 20.9751C189.151 12.1843 182.023 5.05795 173.23 5.05795C164.437 5.05795 157.309 12.1843 157.309 20.9751Z" fill="#044799"/>
<path fill-rule="evenodd" clip-rule="evenodd" d="M219.011 4.31222C217.788 4.89634 216.637 5.60931 215.578 6.43358V7.19082C215.578 8.90564 215.728 10.6133 216.024 12.2946C216.646 12.2955 217.234 12.4426 217.755 12.7034C218.455 12.1739 219.171 11.6649 219.901 11.1769C219.906 10.6294 220.064 10.1185 220.335 9.68501C219.718 7.94822 219.274 6.14965 219.012 4.3151L219.011 4.31222ZM219.395 14.2583C219.851 13.9201 220.313 13.591 220.781 13.271C221.194 13.6684 221.726 13.9434 222.317 14.0376C222.534 14.4226 222.761 14.8027 222.997 15.1777C223.572 16.0924 224.199 16.9722 224.876 17.8128C223.367 19.7109 221.966 21.6904 220.68 23.7416C219.737 22.3575 218.914 20.896 218.221 19.3732C219.236 18.6731 219.902 17.5022 219.902 16.176C219.902 15.4785 219.718 14.8239 219.395 14.2583ZM224.883 13.9918C224.771 13.8139 224.661 13.6348 224.554 13.4544C225.218 12.9286 225.644 12.1155 225.644 11.2029C225.644 10.9431 225.609 10.6913 225.545 10.452C226.946 9.74083 228.386 9.107 229.859 8.55368L237.242 5.78012C237.286 5.76351 237.329 5.74439 237.37 5.72299L228.596 13.5358L229.337 14.3677L228.528 13.6025C227.772 14.4017 227.038 15.2191 226.325 16.0537C225.811 15.3909 225.33 14.7028 224.883 13.9918ZM229.076 6.4681C227.384 7.1037 225.733 7.84026 224.131 8.67345C223.727 8.45581 223.264 8.33232 222.773 8.33232C222.592 8.33232 222.415 8.34903 222.243 8.38099C221.774 6.95743 221.43 5.49162 221.217 3.99996L221.139 3.45319C223.004 2.83116 224.999 2.49426 227.073 2.49426C229.903 2.49426 232.587 3.12184 234.992 4.24541L229.076 6.4681ZM213.375 8.44711C213.435 9.95637 213.603 11.4573 213.877 12.9386C212.828 13.6335 212.137 14.824 212.137 16.176C212.137 16.6392 212.218 17.0835 212.367 17.4954L208.343 21.5654C208.341 21.4513 208.34 21.3369 208.34 21.2223C208.34 16.2845 210.252 11.793 213.375 8.44711ZM208.618 24.456L213.715 19.3004C214.36 19.7761 215.157 20.0574 216.019 20.0574C216.041 20.0574 216.063 20.0572 216.086 20.0568C216.886 21.8546 217.853 23.5747 218.975 25.1943L219.42 25.8369C217.77 28.7005 216.337 31.6918 215.136 34.7864L214.882 35.442C211.653 32.6731 209.379 28.8244 208.618 24.456ZM216.729 36.8389C218.913 38.2874 221.418 39.2904 224.114 39.7181L224.377 37.3192C224.445 36.6929 224.527 36.0687 224.621 35.4468C222.973 34.9981 221.761 33.4913 221.761 31.7015C221.761 30.9341 221.984 30.2188 222.369 29.6166C221.85 29.0286 221.348 28.4251 220.865 27.807C219.475 30.3105 218.254 32.9114 217.213 35.5926L216.729 36.8389ZM226.439 27.9015C226.182 27.8482 225.916 27.8201 225.644 27.8201C225.077 27.8201 224.539 27.9414 224.054 28.1594C223.361 27.3753 222.701 26.5619 222.076 25.7215C223.381 23.5713 224.814 21.4998 226.368 19.5186L226.378 19.5297L227.287 20.4858C227.149 20.8886 227.073 21.3297 227.073 21.7921C227.073 22.7151 227.376 23.5531 227.87 24.171C227.338 25.3939 226.86 26.6387 226.439 27.9015ZM229.839 25.2302C229.309 26.4629 228.837 27.7187 228.425 28.9933C229.107 29.6927 229.526 30.6481 229.526 31.7015C229.526 32.1894 229.436 32.6563 229.272 33.0865L235.21 38.0956C238.462 36.525 241.192 34.0421 243.065 30.9793C239.145 30.0683 235.473 28.2904 232.323 25.7705L233.018 24.9006L232.211 25.6679L231.368 24.7805C230.948 25.0681 230.462 25.2325 229.944 25.2325C229.909 25.2325 229.874 25.2317 229.839 25.2302ZM232.661 22.9074L233.773 24.0775C236.805 26.4873 240.359 28.1508 244.147 28.9362C245.212 26.5839 245.805 23.9723 245.805 21.2223C245.805 16.344 243.939 11.9014 240.883 8.56861L236.891 13.5141L232.544 20.3304C232.718 20.774 232.815 21.2694 232.815 21.7921C232.815 22.1825 232.761 22.5577 232.661 22.9074ZM231.008 18.5956L235.046 12.2638L235.079 12.2115L235.118 12.1631L239.275 7.01269L239.273 7.01094L230.114 15.1675C229.313 16.0159 228.537 16.8855 227.787 17.7749C227.855 17.8487 227.924 17.9221 227.993 17.995L228.671 18.7077C229.054 18.4798 229.487 18.3517 229.944 18.3517C230.32 18.3517 230.679 18.4382 231.008 18.5956ZM226.887 35.3797C227.256 35.255 227.601 35.0763 227.911 34.8529L232.87 39.0362C231.044 39.6296 229.096 39.9503 227.073 39.9503C226.825 39.9503 226.578 39.9455 226.332 39.9359L226.592 37.5615C226.672 36.8311 226.77 36.1036 226.887 35.3797Z" fill="#044799"/>
</svg>
