<svg width="25" height="24" viewBox="0 0 25 24" fill="none" xmlns="http://www.w3.org/2000/svg">
<path d="M10.5869 4C10.5869 2.89455 11.4815 2 12.5869 2C13.6924 2 14.5869 2.89455 14.5869 4C14.5869 5.10545 13.6924 6 12.5869 6C11.4815 6 10.5869 5.10545 10.5869 4Z" fill="#6381CF"/>
<path d="M10.5869 12C10.5869 10.8945 11.4815 10 12.5869 10C13.6924 10 14.5869 10.8945 14.5869 12C14.5869 13.1055 13.6924 14 12.5869 14C11.4815 14 10.5869 13.1055 10.5869 12Z" fill="#6381CF"/>
<path d="M10.5869 20C10.5869 18.8945 11.4815 18 12.5869 18C13.6924 18 14.5869 18.8945 14.5869 20C14.5869 21.1055 13.6924 22 12.5869 22C11.4815 22 10.5869 21.1055 10.5869 20Z" fill="#6381CF"/>
</svg>
