<svg width="25" height="24" viewBox="0 0 25 24" fill="none" xmlns="http://www.w3.org/2000/svg">
<path d="M12.6069 2.90997C9.29694 2.90997 6.60694 5.59997 6.60694 8.90997V11.8C6.60694 12.41 6.34694 13.34 6.03694 13.86L4.88694 15.77C4.17694 16.95 4.66694 18.26 5.96694 18.7C10.2769 20.14 14.9269 20.14 19.2369 18.7C20.4469 18.3 20.9769 16.87 20.3169 15.77L19.1669 13.86C18.8669 13.34 18.6069 12.41 18.6069 11.8V8.90997C18.6069 5.60997 15.9069 2.90997 12.6069 2.90997Z" stroke="#6381CF" stroke-width="1.5" stroke-miterlimit="10" stroke-linecap="round"/>
<path d="M14.4569 3.2C14.1469 3.11 13.8269 3.04 13.4969 3C12.5369 2.88 11.6169 2.95 10.7569 3.2C11.0469 2.46 11.7669 1.94 12.6069 1.94C13.4469 1.94 14.1669 2.46 14.4569 3.2Z" stroke="#6381CF" stroke-width="1.5" stroke-miterlimit="10" stroke-linecap="round" stroke-linejoin="round"/>
<path d="M15.6069 19.06C15.6069 20.71 14.2569 22.06 12.6069 22.06C11.7869 22.06 11.0269 21.72 10.4869 21.18C9.94693 20.64 9.60693 19.88 9.60693 19.06" stroke="#6381CF" stroke-width="1.5" stroke-miterlimit="10"/>
</svg>
