<svg width="25" height="24" viewBox="0 0 25 24" fill="none" xmlns="http://www.w3.org/2000/svg">
<path d="M20.7769 14.06L19.6469 12.18C19.3969 11.77 19.1769 10.98 19.1769 10.5V8.62999C19.1769 4.99999 16.2269 2.04999 12.6069 2.04999C8.97693 2.05999 6.02693 4.99999 6.02693 8.62999V10.49C6.02693 10.97 5.80693 11.76 5.56693 12.17L4.43693 14.05C4.00693 14.78 3.90693 15.61 4.17693 16.33C4.44693 17.06 5.05693 17.64 5.85693 17.9C6.93693 18.26 8.02693 18.52 9.13693 18.71C9.24693 18.73 9.35693 18.74 9.46693 18.76C9.60693 18.78 9.75693 18.8 9.90693 18.82C10.1669 18.86 10.4269 18.89 10.6969 18.91C11.3269 18.97 11.9669 19 12.6069 19C13.2369 19 13.8669 18.97 14.4869 18.91C14.7169 18.89 14.9469 18.87 15.1669 18.84C15.3469 18.82 15.5269 18.8 15.7069 18.77C15.8169 18.76 15.9269 18.74 16.0369 18.72C17.1569 18.54 18.2669 18.26 19.3469 17.9C20.1169 17.64 20.7069 17.06 20.9869 16.32C21.2669 15.57 21.1869 14.75 20.7769 14.06ZM13.3369 9.99999C13.3369 10.42 12.9969 10.76 12.5769 10.76C12.1569 10.76 11.8169 10.42 11.8169 9.99999V6.89999C11.8169 6.47999 12.1569 6.13999 12.5769 6.13999C12.9969 6.13999 13.3369 6.47999 13.3369 6.89999V9.99999Z" fill="#6381CF"/>
<path d="M15.4169 20.01C14.9969 21.17 13.8869 22 12.5869 22C11.7969 22 11.0169 21.68 10.4669 21.11C10.1469 20.81 9.90691 20.41 9.76691 20C9.89691 20.02 10.0269 20.03 10.1669 20.05C10.3969 20.08 10.6369 20.11 10.8769 20.13C11.4469 20.18 12.0269 20.21 12.6069 20.21C13.1769 20.21 13.7469 20.18 14.3069 20.13C14.5169 20.11 14.7269 20.1 14.9269 20.07C15.0869 20.05 15.2469 20.03 15.4169 20.01Z" fill="#6381CF"/>
</svg>
