<svg width="25" height="24" viewBox="0 0 25 24" fill="none" xmlns="http://www.w3.org/2000/svg">
<path d="M19.9269 14.49L18.9269 12.83C18.7169 12.46 18.5269 11.76 18.5269 11.35V8.82C18.5269 6.47 17.1469 4.44 15.1569 3.49C14.6369 2.57 13.6769 2 12.5769 2C11.4869 2 10.5069 2.59 9.98692 3.52C8.03692 4.49 6.68692 6.5 6.68692 8.82V11.35C6.68692 11.76 6.49692 12.46 6.28692 12.82L5.27692 14.49C4.87692 15.16 4.78692 15.9 5.03692 16.58C5.27692 17.25 5.84692 17.77 6.58692 18.02C8.52692 18.68 10.5669 19 12.6069 19C14.6469 19 16.6869 18.68 18.6269 18.03C19.3269 17.8 19.8669 17.27 20.1269 16.58C20.3869 15.89 20.3169 15.13 19.9269 14.49Z" fill="#6381CF"/>
<path d="M15.4169 20.01C14.9969 21.17 13.8869 22 12.5869 22C11.7969 22 11.0169 21.68 10.4669 21.11C10.1469 20.81 9.90691 20.41 9.76691 20C9.89691 20.02 10.0269 20.03 10.1669 20.05C10.3969 20.08 10.6369 20.11 10.8769 20.13C11.4469 20.18 12.0269 20.21 12.6069 20.21C13.1769 20.21 13.7469 20.18 14.3069 20.13C14.5169 20.11 14.7269 20.1 14.9269 20.07C15.0869 20.05 15.2469 20.03 15.4169 20.01Z" fill="#6381CF"/>
</svg>
