<svg width="25" height="24" viewBox="0 0 25 24" fill="none" xmlns="http://www.w3.org/2000/svg">
<path d="M16.1669 12C16.1669 13.98 14.5669 15.58 12.5869 15.58C10.6069 15.58 9.0069 13.98 9.0069 12C9.0069 10.02 10.6069 8.41998 12.5869 8.41998C14.5669 8.41998 16.1669 10.02 16.1669 12Z" stroke="#6381CF" stroke-width="1.5" stroke-linecap="round" stroke-linejoin="round"/>
<path d="M12.5869 20.27C16.1169 20.27 19.4069 18.19 21.6969 14.59C22.5969 13.18 22.5969 10.81 21.6969 9.39997C19.4069 5.79997 16.1169 3.71997 12.5869 3.71997C9.05694 3.71997 5.76694 5.79997 3.47694 9.39997C2.57694 10.81 2.57694 13.18 3.47694 14.59C5.76694 18.19 9.05694 20.27 12.5869 20.27Z" stroke="#6381CF" stroke-width="1.5" stroke-linecap="round" stroke-linejoin="round"/>
</svg>
