<svg width="25" height="24" viewBox="0 0 25 24" fill="none" xmlns="http://www.w3.org/2000/svg">
<path d="M12.0869 21C17.3336 21 21.5869 16.7467 21.5869 11.5C21.5869 6.25329 17.3336 2 12.0869 2C6.84021 2 2.58691 6.25329 2.58691 11.5C2.58691 16.7467 6.84021 21 12.0869 21Z" fill="#6381CF"/>
<path d="M21.8869 22C21.7069 22 21.5269 21.93 21.3969 21.8L19.5369 19.94C19.2669 19.67 19.2669 19.23 19.5369 18.95C19.8069 18.68 20.2469 18.68 20.5269 18.95L22.3869 20.81C22.6569 21.08 22.6569 21.52 22.3869 21.8C22.2469 21.93 22.0669 22 21.8869 22Z" fill="#6381CF"/>
</svg>
