<svg width="25" height="24" viewBox="0 0 25 24" fill="none" xmlns="http://www.w3.org/2000/svg">
<path d="M20.6869 9.22C18.8769 9.22 18.1369 7.94 19.0369 6.37C19.5569 5.46 19.2469 4.3 18.3369 3.78L16.6069 2.79C15.8169 2.32 14.7969 2.6 14.3269 3.39L14.2169 3.58C13.3169 5.15 11.8369 5.15 10.9269 3.58L10.8169 3.39C10.3669 2.6 9.34691 2.32 8.55691 2.79L6.82691 3.78C5.91691 4.3 5.60691 5.47 6.12691 6.38C7.03691 7.94 6.29691 9.22 4.48691 9.22C3.44691 9.22 2.58691 10.07 2.58691 11.12V12.88C2.58691 13.92 3.43691 14.78 4.48691 14.78C6.29691 14.78 7.03691 16.06 6.12691 17.63C5.60691 18.54 5.91691 19.7 6.82691 20.22L8.55691 21.21C9.34691 21.68 10.3669 21.4 10.8369 20.61L10.9469 20.42C11.8469 18.85 13.3269 18.85 14.2369 20.42L14.3469 20.61C14.8169 21.4 15.8369 21.68 16.6269 21.21L18.3569 20.22C19.2669 19.7 19.5769 18.53 19.0569 17.63C18.1469 16.06 18.8869 14.78 20.6969 14.78C21.7369 14.78 22.5969 13.93 22.5969 12.88V11.12C22.5869 10.08 21.7369 9.22 20.6869 9.22ZM12.5869 15.25C10.7969 15.25 9.33691 13.79 9.33691 12C9.33691 10.21 10.7969 8.75 12.5869 8.75C14.3769 8.75 15.8369 10.21 15.8369 12C15.8369 13.79 14.3769 15.25 12.5869 15.25Z" fill="#6381CF"/>
</svg>
