<svg width="25" height="24" viewBox="0 0 25 24" fill="none" xmlns="http://www.w3.org/2000/svg">
<path d="M12.5869 2C7.07691 2 2.58691 6.49 2.58691 12C2.58691 17.51 7.07691 22 12.5869 22C18.0969 22 22.5869 17.51 22.5869 12C22.5869 6.49 18.0969 2 12.5869 2ZM17.3669 9.7L11.6969 15.37C11.5569 15.51 11.3669 15.59 11.1669 15.59C10.9669 15.59 10.7769 15.51 10.6369 15.37L7.80691 12.54C7.51691 12.25 7.51691 11.77 7.80691 11.48C8.09691 11.19 8.57691 11.19 8.86691 11.48L11.1669 13.78L16.3069 8.64C16.5969 8.35 17.0769 8.35 17.3669 8.64C17.6569 8.93 17.6569 9.4 17.3669 9.7Z" fill="#6381CF"/>
</svg>
