<svg width="25" height="24" viewBox="0 0 25 24" fill="none" xmlns="http://www.w3.org/2000/svg">
<path d="M19.6469 18.67L17.5069 14.4L15.3669 18.67" stroke="#6381CF" stroke-width="1.5" stroke-linecap="round" stroke-linejoin="round"/>
<path d="M15.7569 17.91H19.2769" stroke="#6381CF" stroke-width="1.5" stroke-linecap="round" stroke-linejoin="round"/>
<path d="M17.5069 22C14.7069 22 12.4269 19.73 12.4269 16.92C12.4269 14.12 14.6969 11.84 17.5069 11.84C20.3069 11.84 22.5869 14.11 22.5869 16.92C22.5869 19.73 20.3169 22 17.5069 22Z" stroke="#6381CF" stroke-width="1.5" stroke-linecap="round" stroke-linejoin="round"/>
<path d="M5.60692 2H9.52692C11.5969 2 12.5969 3.00002 12.5469 5.02002V8.94C12.5969 11.01 11.5969 12.01 9.52692 11.96H5.60692C3.58692 12 2.58691 11 2.58691 8.92999V5.01001C2.58691 3.00001 3.58692 2 5.60692 2Z" stroke="#6381CF" stroke-width="1.5" stroke-linecap="round" stroke-linejoin="round"/>
<path d="M9.59692 5.84998H5.53693" stroke="#6381CF" stroke-width="1.5" stroke-linecap="round" stroke-linejoin="round"/>
<path d="M7.55692 5.16998V5.84998" stroke="#6381CF" stroke-width="1.5" stroke-linecap="round" stroke-linejoin="round"/>
<path d="M8.57692 5.84003C8.57692 7.59003 7.20692 9.01001 5.52692 9.01001" stroke="#6381CF" stroke-width="1.5" stroke-linecap="round" stroke-linejoin="round"/>
<path d="M9.59691 9.01001C8.86691 9.01001 8.20692 8.62 7.74692 8" stroke="#6381CF" stroke-width="1.5" stroke-linecap="round" stroke-linejoin="round"/>
<path d="M2.58691 15C2.58691 18.87 5.71691 22 9.58691 22L8.53691 20.25" stroke="#6381CF" stroke-width="1.5" stroke-linecap="round" stroke-linejoin="round"/>
<path d="M22.5869 9C22.5869 5.13 19.4569 2 15.5869 2L16.6369 3.75" stroke="#6381CF" stroke-width="1.5" stroke-linecap="round" stroke-linejoin="round"/>
</svg>
