<svg width="25" height="24" viewBox="0 0 25 24" fill="none" xmlns="http://www.w3.org/2000/svg">
<path d="M16.5869 2H8.58691C5.08691 2 3.58691 4 3.58691 7V11.47C3.58691 11.82 3.92691 12.06 4.24691 11.94C5.34691 11.51 6.59691 11.37 7.88691 11.63C10.4869 12.15 12.5569 14.29 12.9869 16.9C13.2469 18.49 12.9269 20 12.1969 21.25C11.9969 21.58 12.2369 22 12.6269 22H16.5869C20.0869 22 21.5869 20 21.5869 17V7C21.5869 4 20.0869 2 16.5869 2ZM19.0869 9.25H17.0869C15.5669 9.25 14.3369 8.02 14.3369 6.5V4.5C14.3369 4.09 14.6769 3.75 15.0869 3.75C15.4969 3.75 15.8369 4.09 15.8369 4.5V6.5C15.8369 7.19 16.3969 7.75 17.0869 7.75H19.0869C19.4969 7.75 19.8369 8.09 19.8369 8.5C19.8369 8.91 19.4969 9.25 19.0869 9.25Z" fill="#6381CF"/>
<path d="M6.58691 13C3.82691 13 1.58691 15.24 1.58691 18C1.58691 20.76 3.82691 23 6.58691 23C9.34691 23 11.5869 20.76 11.5869 18C11.5869 15.24 9.34691 13 6.58691 13ZM5.74691 19.27C5.99691 19.52 5.99691 19.93 5.74691 20.19C5.61691 20.32 5.45691 20.38 5.28691 20.38C5.11691 20.38 4.95691 20.32 4.82691 20.19L3.09691 18.46C2.84691 18.21 2.84691 17.8 3.09691 17.54L4.82691 15.81C5.07691 15.56 5.48691 15.56 5.74691 15.81C5.99691 16.06 5.99691 16.47 5.74691 16.73L4.47691 18L5.74691 19.27ZM10.0669 18.46L8.33691 20.19C8.20691 20.32 8.04691 20.38 7.87691 20.38C7.70691 20.38 7.54691 20.32 7.41691 20.19C7.16691 19.94 7.16691 19.53 7.41691 19.27L8.69691 18L7.42691 16.73C7.17691 16.48 7.17691 16.07 7.42691 15.81C7.67691 15.56 8.08691 15.56 8.34691 15.81L10.0769 17.54C10.3169 17.8 10.3169 18.2 10.0669 18.46Z" fill="#6381CF"/>
</svg>
